<?xml version="1.0" encoding="utf-8"?>
<!-- Generator: Adobe Illustrator 19.0.0, SVG Export Plug-In . SVG Version: 6.00 Build 0)  -->
<svg version="1.1" xmlns="http://www.w3.org/2000/svg" xmlns:xlink="http://www.w3.org/1999/xlink" x="0px" y="0px"
	 viewBox="0 0 1440 1440" style="enable-background:new 0 0 1440 1440;" xml:space="preserve">
<style type="text/css">
	.st0{fill:none;}
	.st1{fill:none;stroke:#000000;stroke-width:4;stroke-miterlimit:10;}
	.st2{display:none;}
	.st3{fill:none;stroke:#000000;stroke-miterlimit:10;}
	.st4{fill:none;stroke:#000000;stroke-width:5;stroke-miterlimit:5;}
	.st5{fill:none;stroke:#000000;stroke-width:36;stroke-miterlimit:5;}
</style>
<g id="Layer_1">
</g>
<g id="M">
	<rect id="XMLID_2_" x="-1275.1" y="95.9" class="st0" width="445" height="335"/>
	
		<text id="XMLID_1_" transform="matrix(1 0 0 1 -1275.1418 245.9297)" style="font-family:'AbrilFatface-Regular'; font-size:200px;">M</text>
	<line id="XMLID_3_" class="st0" x1="-1030.1" y1="195.9" x2="-1304.6" y2="195.9"/>
</g>
<g id="Line">
	<line id="XMLID_58_" class="st1" x1="-1061.5" y1="223.2" x2="-1325.4" y2="145.4"/>
	<line id="XMLID_57_" class="st1" x1="-1057.4" y1="205.8" x2="-1068.9" y2="245"/>
	<line id="XMLID_56_" class="st1" x1="-1319.6" y1="125.8" x2="-1331.1" y2="165"/>
</g>
<g id="M_x5F_V1">
	<rect id="XMLID_7_" x="-855" y="126.5" class="st0" width="286.5" height="193.5"/>
	<g id="XMLID_11_" class="st2">
		<polygon id="XMLID_12_" class="st3" points="301.5,570 289,604.3 275.9,570 272,605 306,604.5 		"/>
	</g>
</g>
<g id="M_x5F_V2_1_">
	<g id="M_x5F_V2_2_">
		<g id="XMLID_37_">
			<path id="XMLID_45_" d="M-1018.8,789.5c5-46.5,10-92.9,14.9-139.4c0.7-6.6,1.4-13.1,2.1-19.7c-1.6,0.2-3.3,0.4-4.9,0.7
				c16.6,42.3,33.1,84.6,49.7,126.8c2.3,6,4.7,12,7,18c0.9,2.3,3.9,2.4,4.8,0c15.9-41.6,31.8-83.2,47.8-124.8c2.3-6,4.6-12,6.9-17.9
				c-1.6-0.2-3.3-0.4-4.9-0.7c5.6,45.7,11.2,91.4,16.7,137.2c0.8,6.4,1.6,12.9,2.4,19.3c0.4,3.2,5.4,3.2,5,0
				c-5.6-45.7-11.2-91.4-16.7-137.2c-0.8-6.4-1.6-12.9-2.4-19.3c-0.3-2.8-3.9-3.4-4.9-0.7c-15.9,41.6-31.8,83.2-47.8,124.8
				c-2.3,6-4.6,12-6.9,17.9c1.6,0,3.2,0,4.8,0c-16.6-42.3-33.1-84.6-49.7-126.8c-2.3-6-4.7-12-7-18c-1-2.7-4.6-2.2-4.9,0.7
				c-5,46.5-10,92.9-14.9,139.4c-0.7,6.6-1.4,13.1-2.1,19.7C-1024.1,792.6-1019.1,792.6-1018.8,789.5L-1018.8,789.5z"/>
		</g>
	</g>
	<g id="Layer_6">
		<g id="XMLID_34_">
			<g id="XMLID_36_">
				<path id="XMLID_41_" d="M-1097.8,749.8c33.5,0,66.9,0,100.4,0c53.3,0,106.7,0,160,0c12.2,0,24.5,0,36.7,0c3.2,0,3.2-5,0-5
					c-33.5,0-66.9,0-100.4,0c-53.3,0-106.7,0-160,0c-12.2,0-24.5,0-36.7,0C-1101,744.8-1101,749.8-1097.8,749.8L-1097.8,749.8z"/>
			</g>
		</g>
	</g>
</g>
<g id="MOM">
	<path id="M_x5F_V2_5_" class="st4" d="M-694.1,565.6l15.5-113.5c0.3-2.1,3.1-2.5,4-0.6l50,109.8c0.7,1.6,3.1,1.6,3.8,0l48.1-108.3
		c0.8-1.9,3.7-1.5,4,0.5l17.4,111.6"/>
	<circle id="XMLID_14_" class="st4" cx="-495.5" cy="487.6" r="37.4"/>
	<line id="XMLID_13_" class="st4" x1="-521.3" y1="549.2" x2="-459.6" y2="550.1"/>
</g>
<g id="MO_x5F_2">
	<path id="M_x5F_V2_4_" class="st5" d="M296.7,846.4l50-365.4c0.9-6.7,10-8,12.8-1.9l160.9,353.7c2.4,5.3,9.9,5.3,12.3-0.1
		l155-348.9c2.7-6.1,11.8-4.9,12.8,1.7l56,359.5"/>
	<circle id="XMLID_24_" class="st5" cx="960.4" cy="675.6" r="154"/>
	<line id="XMLID_23_" class="st5" x1="104.1" y1="680.4" x2="1306.9" y2="683.2"/>
</g>
</svg>
